<svg width="16px" height="16px" viewBox="60 35 160 160" version="1.1" xmlns="http://www.w3.org/2000/svg"><title>JPS</title><defs><polygon id="path-1" points="0 0.4497 13.4809 0.4497 13.4809 31.2545696 0 31.2545696"></polygon><polygon id="path-3" points="0.33145 0.12415 6.22545 0.12415 6.22545 8.5 0.33145 8.5"></polygon><polygon id="path-5" points="0.1735 0.1242 4.974 0.1242 4.974 8.5 0.1735 8.5"></polygon></defs><g id="logo" stroke="none" stroke-width="1" fill="none" fill-rule="evenodd"><g id="Group-76" transform="translate(10.000000, 36.000000)"><path d="M124.32155,110.32805 C124.32155,111.11805 124.88105,111.44155 125.56555,111.04655 L152.08905,95.73305 C152.77355,95.33805 153.33355,94.36805 153.33355,93.57805 L153.33355,62.95105 C153.33355,62.16105 152.77355,61.83755 152.08905,62.23255 L125.56555,77.54605 C124.88105,77.94105 124.32155,78.91105 124.32155,79.70155 L124.32155,110.32805 Z" fill="#D1C116"></path><path d="M87.2832,88.944 C87.2832,89.7345 87.8432,90.0575 88.5277,89.6625 L115.0512,74.349 C115.7357,73.954 116.2952,72.984 116.2952,72.194 L116.2952,41.567 C116.2952,40.777 115.7357,40.4535 115.0512,40.849 L88.5277,56.162 C87.8432,56.557 87.2832,57.527 87.2832,58.3175 L87.2832,88.944 Z" fill="#6D37B8"></path><path d="M125.56565,40.8488 C124.88115,40.4533 124.32165,40.7768 124.32165,41.5673 L124.32165,67.5598 C124.32165,68.3503 124.88115,68.6733 125.56565,68.2783 L148.07615,55.2818 C148.76065,54.8868 148.76065,54.2403 148.07615,53.8453 L125.56565,40.8488 Z" fill="#FFFFFE"></path><path d="M115.05105,111.0463 C115.73555,111.4418 116.29555,111.1183 116.29555,110.3278 L116.29555,84.3353 C116.29555,83.5448 115.73555,83.2218 115.05105,83.6168 L92.54055,96.6128 C91.85605,97.0083 91.85605,97.6548 92.54055,98.0498 L115.05105,111.0463 Z" fill="#595A59"></path><path d="M182.96705,35.1376 C183.47705,34.8451 183.45905,34.4976 183.34355,34.2436 C181.01005,31.2626 178.18955,28.6816 174.98205,26.6476 C174.86755,26.5751 174.74955,26.5066 174.63405,26.4356 C174.23405,26.1891 173.83205,25.9451 173.42105,25.7151 L173.42355,25.7116 L167.13505,22.0811 L158.59055,17.1476 C157.90605,16.7526 156.78655,16.7526 156.10255,17.1481 L129.57855,32.4611 C128.89405,32.8566 128.89405,33.5026 129.57905,33.8981 L142.84055,41.5546 L156.10255,49.2111 C156.78655,49.6066 157.90655,49.6066 158.59055,49.2111 L167.13505,44.2786 L167.13505,44.2781 C172.96805,40.9096 182.41305,35.4566 182.94655,35.1496 L182.96705,35.1376 Z" fill="#D1C116"></path><path d="M111.0381,117.99695 L84.5146,102.68395 C83.8301,102.28845 82.7101,102.28845 82.0261,102.68395 L73.6131,107.54045 L73.6131,107.54095 C67.8076,110.89345 58.2606,116.40595 57.6776,116.74095 L57.6496,116.75745 C57.0906,117.07845 57.1656,117.46445 57.3091,117.72045 C57.4961,117.95795 57.6791,118.19845 57.8721,118.43095 C57.8771,118.43645 57.8816,118.44245 57.8866,118.44795 C58.8991,119.66445 59.9971,120.80695 61.1716,121.86645 C61.1736,121.86845 61.1761,121.87095 61.1786,121.87295 C61.5451,122.20295 61.9196,122.52345 62.3001,122.83695 C62.3461,122.87445 62.3911,122.91245 62.4371,122.94945 C62.7656,123.21695 63.1006,123.47595 63.4391,123.73095 C63.5481,123.81245 63.6556,123.89495 63.7661,123.97495 C64.0396,124.17595 64.3196,124.37045 64.6001,124.56295 C64.7826,124.68795 64.9646,124.81395 65.1501,124.93545 C65.3661,125.07745 65.5861,125.21445 65.8056,125.35145 C66.1196,125.54745 66.4321,125.74395 66.7551,125.93045 L73.6131,129.88995 L82.0261,134.74695 C82.7101,135.14245 83.8301,135.14245 84.5146,134.74695 L111.0381,119.43395 C111.7226,119.03845 111.7226,118.39245 111.0381,117.99695" fill="#6D37B8"></path><g id="Group" transform="translate(50.000000, 0.000000)" fill="#DA0340"><path d="M136.97975,42.08855 C136.39025,42.43105 116.61625,53.84555 116.61625,53.84555 C115.93225,54.24055 115.93225,54.88705 116.61675,55.28205 L135.60675,66.24555 L139.12725,68.27855 C139.81175,68.67355 140.37175,68.35005 140.37175,67.56005 L140.37175,54.56055 C140.37125,50.28305 139.55275,46.19805 138.07075,42.44755 C137.96475,42.17955 137.67075,41.68705 136.97975,42.08855" id="Fill-38"></path><path d="M3.63695,42.08855 C4.22645,42.43105 24.00045,53.84555 24.00045,53.84555 C24.68445,54.24055 24.68445,54.88705 23.99995,55.28205 L5.00995,66.24555 L1.48945,68.27855 C0.80495,68.67355 0.24495,68.35005 0.24495,67.56005 L0.24495,54.56055 C0.24545,50.28305 1.06395,46.19805 2.54595,42.44755 C2.65195,42.17955 2.94595,41.68705 3.63695,42.08855" id="Fill-40"></path><path d="M136.97975,109.80655 C136.39025,109.46405 116.61625,98.05005 116.61625,98.05005 C115.93225,97.65455 115.93225,97.00805 116.61675,96.61305 L135.60675,85.64955 L139.12725,83.61705 C139.81175,83.22155 140.37175,83.54505 140.37175,84.33505 L140.37175,97.33455 C140.37125,101.61205 139.55275,105.69705 138.07075,109.44755 C137.96475,109.71555 137.67075,110.20805 136.97975,109.80655" id="Fill-42"></path><path d="M3.63695,109.80655 C4.22645,109.46405 24.00045,98.05005 24.00045,98.05005 C24.68445,97.65455 24.68445,97.00805 23.99995,96.61305 L5.00995,85.64955 L1.48945,83.61705 C0.80495,83.22155 0.24495,83.54505 0.24495,84.33505 L0.24495,97.33455 C0.24545,101.61205 1.06395,105.69705 2.54595,109.44755 C2.65195,109.71555 2.94595,110.20805 3.63695,109.80655" id="Fill-44"></path><path d="M74.32155,150.6161 C74.32355,149.9346 74.32155,127.1031 74.32155,127.1031 C74.32155,126.3131 74.88155,125.9896 75.56555,126.3846 L94.55555,137.3486 L98.07605,139.3811 C98.76055,139.7761 98.76055,140.4226 98.07605,140.8176 L86.81855,147.3176 C83.11355,149.4561 79.16655,150.7901 75.17755,151.3816 C74.89255,151.4236 74.31905,151.4156 74.32155,150.6161" id="Fill-48"></path><path d="M132.96705,116.75725 C132.37505,116.41825 112.60355,105.00025 112.60355,105.00025 C111.91905,104.60525 111.35955,104.92875 111.35955,105.71925 L111.35955,127.64675 L111.35955,131.71175 C111.35955,132.50225 111.91955,132.82575 112.60355,132.43025 L123.86155,125.93075 C127.56605,123.79125 130.69455,121.03975 133.20155,117.88175 C133.38055,117.65575 133.66005,117.15475 132.96705,116.75725" id="Fill-53"></path><path d="M102.0891,132.4301 C102.7736,132.8256 103.3336,132.5026 103.3336,131.7116 L103.3336,105.7191 C103.3336,104.9291 102.7736,104.6056 102.0891,105.0006 L79.5786,117.9971 C78.8941,118.3921 78.8941,119.0386 79.5786,119.4341 L102.0891,132.4301 Z" id="Fill-55"></path><path d="M112.60375,62.23255 C111.91975,61.83755 111.35975,62.16055 111.35975,62.95105 L111.35975,88.94405 C111.35975,89.73405 111.91975,90.05755 112.60375,89.66205 L135.11425,76.66605 C135.79875,76.27105 135.79875,75.62405 135.11425,75.22905 L112.60375,62.23255 Z" id="Fill-57"></path><path d="M38.5276,19.46475 C37.8431,19.06975 37.2831,19.39275 37.2831,20.18325 L37.2831,46.17575 C37.2831,46.96625 37.8431,47.28925 38.5276,46.89425 L61.0381,33.89825 C61.7226,33.50275 61.7226,32.85625 61.0381,32.46125 L38.5276,19.46475 Z" id="Fill-61"></path><path d="M28.01295,89.66225 C28.69745,90.05775 29.25745,89.73425 29.25745,88.94375 L29.25745,62.95125 C29.25745,62.16075 28.69745,61.83775 28.01295,62.23275 L5.50245,75.22925 C4.81795,75.62425 4.81795,76.27075 5.50245,76.66575 L28.01295,89.66225 Z" id="Fill-65"></path><path d="M66.2954,150.6161 C66.2934,149.9346 66.2954,127.1031 66.2954,127.1031 C66.2954,126.3131 65.7354,125.9896 65.0509,126.3846 L46.0614,137.3486 L42.5404,139.3811 C41.8564,139.7761 41.8564,140.4226 42.5409,140.8176 L53.7984,147.3176 C57.5034,149.4561 61.4504,150.7901 65.4389,151.3816 C65.7244,151.4236 66.2974,151.4156 66.2954,150.6161" id="Fill-67"></path><path d="M7.6499,35.13785 C8.2414,35.47735 28.0134,46.89485 28.0134,46.89485 C28.6974,47.28985 29.2574,46.96635 29.2569,46.17635 L29.2569,24.24835 L29.2569,20.18335 C29.2569,19.39285 28.6974,19.06985 28.0129,19.46485 L16.7549,25.96435 C13.0504,28.10385 9.9224,30.85485 7.4154,34.01335 C7.2359,34.23935 6.9569,34.74035 7.6499,35.13785" id="Fill-46"></path><path d="M66.2954,1.27895 C66.2934,1.96045 66.2954,24.79245 66.2954,24.79245 C66.2954,25.58245 65.7354,25.90545 65.0509,25.51045 L46.0614,14.54645 L42.5404,12.51395 C41.8564,12.11895 41.8564,11.47245 42.5409,11.07745 L53.7984,4.57745 C57.5034,2.43895 61.4504,1.10545 65.4389,0.51345 C65.7244,0.47145 66.2974,0.47995 66.2954,1.27895" id="Fill-50"></path><path d="M74.32155,1.27895 C74.32355,1.96045 74.32155,24.79245 74.32155,24.79245 C74.32155,25.58245 74.88155,25.90545 75.56555,25.51045 L94.55555,14.54645 L98.07605,12.51395 C98.76055,12.11895 98.76055,11.47245 98.07605,11.07745 L86.81855,4.57745 C83.11355,2.43895 79.16655,1.10545 75.17755,0.51345 C74.89255,0.47145 74.31905,0.47995 74.32155,1.27895" id="Fill-69"></path></g></g></g></svg>